<svg width="1410" height="297" viewBox="0 0 1410 297" fill="none" xmlns="http://www.w3.org/2000/svg">
<g opacity="0.45" clip-path="url(#clip0_946_2231)">
<path d="M213.372 377.423C184.16 377.423 159.337 358.351 143.747 342.307C137.239 335.648 134.211 332.318 129.822 324.144C126.491 317.939 113.475 320.814 107.572 324.144C100.458 327.928 102.123 332.166 102.728 333.378C108.632 344.275 115.897 354.265 124.676 363.044C148.59 386.958 180.376 400.127 214.129 400.127C261.655 400.127 304.641 373.79 326.437 331.561C335.669 313.852 340.513 293.721 340.513 273.742C340.513 236.811 324.317 201.847 296.316 177.78C273.461 158.104 244.249 147.357 214.129 147.357C189.155 147.357 158.58 158.407 137.995 174.905C116.502 192.009 109.994 197.306 105.453 220.009C103.939 227.729 106.967 230.907 113.021 234.237C117.41 236.659 122.254 236.962 125.584 234.994C128.157 233.48 129.519 230.907 129.671 227.729C129.973 213.804 137.541 201.695 152.979 190.797C167.207 180.505 187.338 175.662 214.28 175.662C239.102 175.662 262.866 185.045 281.181 201.998C299.646 219.252 309.484 244.076 309.484 274.045C309.484 290.24 306.154 303.257 298.132 317.939C282.089 346.545 251.666 377.423 213.372 377.423Z" fill="white"/>
<path d="M352.168 355.17C345.054 368.489 339.757 374.09 329.464 384.685C299.95 414.957 260.293 441.142 216.853 441.142C156.612 441.142 106.967 394.221 80.1764 344.726C67.9164 322.174 61.862 301.135 61.862 273.739C61.862 227.877 76.5439 186.405 107.875 157.344C136.179 131.008 174.17 114.812 215.945 114.812C250.001 114.812 287.235 119.807 314.783 139.484C334.913 153.863 352.622 173.691 353.227 201.086C353.379 210.623 363.973 211.834 372.298 207.293C380.775 202.752 383.65 199.422 381.835 190.037C375.174 156.436 366.85 149.474 332.491 122.078C302.522 98.163 255.753 80 216.096 80C168.116 80 124.222 97.5576 90.3175 126.618C48.8452 162.188 22.6602 214.861 22.6602 273.588C22.6602 305.524 30.3794 335.644 44.1531 362.132C76.3925 424.34 141.325 467.024 216.096 467.024C268.315 467.024 317.355 446.137 353.076 410.264C366.244 397.097 377.596 381.961 386.677 365.008C390.916 356.684 356.708 346.694 352.168 355.17Z" fill="white"/>
<path d="M426.201 330.88V193.837H439.328V330.88H426.201ZM432.764 160.496C429.788 160.496 427.25 159.445 425.151 157.345C423.05 155.244 422 152.795 422 149.994C422 147.019 423.05 144.481 425.151 142.38C427.25 140.28 429.788 139.23 432.764 139.23C435.915 139.23 438.453 140.28 440.378 142.38C442.478 144.306 443.529 146.755 443.529 149.731C443.529 152.706 442.478 155.244 440.378 157.345C438.453 159.445 435.915 160.496 432.764 160.496ZM530.096 192.787C541.297 192.787 551.012 194.974 559.238 199.35C567.638 203.55 574.114 210.027 578.665 218.778C583.391 227.354 585.754 238.03 585.754 250.807V330.88H572.626V251.857C572.626 236.455 568.689 224.728 560.812 216.678C553.111 208.626 542.261 204.6 528.258 204.6C517.583 204.6 508.306 206.789 500.43 211.164C492.554 215.539 486.516 221.666 482.315 229.542C478.289 237.418 476.277 246.869 476.277 257.895V330.88H463.151V193.837H475.751V231.905L473.914 227.704C478.114 216.853 485.028 208.364 494.655 202.238C504.281 195.937 516.095 192.787 530.096 192.787ZM675.238 192.787C686.441 192.787 696.154 194.974 704.38 199.35C712.781 203.55 719.257 210.027 723.808 218.778C728.533 227.354 730.896 238.03 730.896 250.807V330.88H717.77V251.857C717.77 236.455 713.831 224.728 705.956 216.678C698.255 208.626 687.403 204.6 673.401 204.6C662.725 204.6 653.449 206.789 645.573 211.164C637.696 215.539 631.658 221.666 627.457 229.542C623.433 237.418 621.419 246.869 621.419 257.895V330.88H608.293V193.837H620.895V231.905L619.056 227.704C623.257 216.853 630.17 208.364 639.797 202.238C649.423 195.937 661.237 192.787 675.238 192.787ZM839.809 330.88V299.638L839.284 294.913V243.456C839.284 230.679 835.783 220.966 828.783 214.315C821.957 207.664 811.893 204.338 798.591 204.338C789.14 204.338 780.301 206.001 772.075 209.326C764.023 212.477 757.11 216.59 751.334 221.666L744.772 212.214C751.598 206.088 759.823 201.363 769.45 198.038C779.076 194.538 789.14 192.787 799.641 192.787C816.618 192.787 829.658 197.075 838.758 205.651C847.86 214.227 852.41 227.004 852.41 243.981V330.88H839.809ZM790.452 331.93C780.301 331.93 771.462 330.354 763.936 327.205C756.586 323.879 750.897 319.24 746.871 313.29C743.022 307.339 741.095 300.513 741.095 292.812C741.095 285.811 742.671 279.511 745.821 273.91C749.147 268.134 754.572 263.496 762.098 259.996C769.625 256.32 779.689 254.482 792.29 254.482H842.697V264.721H792.552C778.375 264.721 768.4 267.346 762.624 272.597C757.023 277.848 754.223 284.411 754.223 292.288C754.223 301.038 757.548 308.039 764.199 313.29C770.849 318.54 780.213 321.166 792.29 321.166C803.841 321.166 813.556 318.54 821.431 313.29C829.482 308.039 835.433 300.426 839.284 290.449L842.959 299.376C839.284 309.352 832.982 317.315 824.056 323.266C815.306 329.042 804.104 331.93 790.452 331.93ZM1045.64 192.787C1056.66 192.787 1066.2 194.974 1074.25 199.35C1082.48 203.55 1088.87 210.027 1093.42 218.778C1097.97 227.354 1100.24 238.03 1100.24 250.807V330.88H1087.12V251.857C1087.12 236.455 1083.36 224.728 1075.83 216.678C1068.3 208.626 1057.8 204.6 1044.33 204.6C1034 204.6 1025.07 206.789 1017.55 211.164C1010.02 215.539 1004.25 221.666 1000.22 229.542C996.194 237.418 994.182 246.869 994.182 257.895V330.88H981.055V251.857C981.055 236.455 977.292 224.728 969.766 216.678C962.239 208.626 951.737 204.6 938.261 204.6C927.933 204.6 919.008 206.789 911.482 211.164C903.956 215.539 898.18 221.666 894.155 229.542C890.129 237.418 888.117 246.869 888.117 257.895V330.88H874.99V193.837H887.591V231.642L885.754 227.441C889.78 216.765 896.518 208.364 905.969 202.238C915.42 195.937 926.796 192.787 940.098 192.787C953.75 192.787 965.213 196.288 974.492 203.288C983.943 210.114 989.894 220.353 992.344 234.005L987.881 232.167C991.557 220.44 998.47 210.989 1008.62 203.814C1018.77 196.462 1031.11 192.787 1045.64 192.787ZM1176.5 331.93C1163.37 331.93 1151.64 328.955 1141.32 323.004C1131.16 317.053 1123.03 308.827 1116.9 298.326C1110.95 287.824 1107.97 275.835 1107.97 262.358C1107.97 248.706 1110.95 236.717 1116.9 226.391C1123.03 215.89 1131.16 207.664 1141.32 201.713C1151.64 195.762 1163.37 192.787 1176.5 192.787C1189.62 192.787 1201.35 195.762 1211.68 201.713C1222 207.664 1230.14 215.89 1236.09 226.391C1242.04 236.717 1245.02 248.706 1245.02 262.358C1245.02 275.835 1242.04 287.824 1236.09 298.326C1230.14 308.827 1222 317.053 1211.68 323.004C1201.35 328.955 1189.62 331.93 1176.5 331.93ZM1176.5 320.115C1187 320.115 1196.45 317.752 1204.85 313.027C1213.25 308.126 1219.81 301.301 1224.54 292.55C1229.26 283.799 1231.63 273.735 1231.63 262.358C1231.63 250.807 1229.26 240.743 1224.54 232.167C1219.81 223.416 1213.25 216.678 1204.85 211.952C1196.45 207.051 1187 204.6 1176.5 204.6C1165.99 204.6 1156.54 207.051 1148.14 211.952C1139.91 216.678 1133.35 223.416 1128.45 232.167C1123.73 240.743 1121.36 250.807 1121.36 262.358C1121.36 273.735 1123.73 283.799 1128.45 292.55C1133.35 301.301 1139.91 308.126 1148.14 313.027C1156.54 317.752 1165.99 320.115 1176.5 320.115ZM1321.19 192.787C1332.39 192.787 1342.1 194.974 1350.32 199.35C1358.73 203.55 1365.2 210.027 1369.76 218.778C1374.48 227.354 1376.85 238.03 1376.85 250.807V330.88H1363.71V251.857C1363.71 236.455 1359.77 224.728 1351.9 216.678C1344.21 208.626 1333.35 204.6 1319.34 204.6C1308.67 204.6 1299.39 206.789 1291.52 211.164C1283.64 215.539 1277.61 221.666 1273.4 229.542C1269.37 237.418 1267.37 246.869 1267.37 257.895V330.88H1254.24V193.837H1266.84V231.905L1265.01 227.704C1269.2 216.853 1276.12 208.364 1285.74 202.238C1295.37 195.937 1307.18 192.787 1321.19 192.787Z" fill="white"/>
</g>
<defs>
<clipPath id="clip0_946_2231">
<rect width="1440" height="467.692" fill="white" transform="translate(-15)"/>
</clipPath>
</defs>
</svg>
