<svg width="90" height="54" viewBox="0 0 90 54" fill="none" xmlns="http://www.w3.org/2000/svg">
<g clip-path="url(#clip0_946_2271)">
<path d="M39.7033 35.1021C40.0042 34.9239 40.3652 34.8447 40.7263 34.8447C41.0071 34.8447 41.2879 34.9041 41.5286 35.0229C41.7893 35.1417 42.01 35.3199 42.1905 35.5179L42.8524 34.8645C42.5916 34.5477 42.2707 34.3101 41.9097 34.1517C41.4684 33.9735 41.0071 33.8943 40.5257 33.9141C40.0443 33.9339 39.583 34.0725 39.1818 34.2903C38.7405 34.5477 38.3795 34.9041 38.1187 35.3595C37.858 35.8347 37.7376 36.3494 37.7376 36.884C37.7376 37.4186 37.858 37.9334 38.1187 38.4086C38.3594 38.8442 38.7205 39.2204 39.1617 39.4778C39.6231 39.7352 40.1446 39.8738 40.6661 39.854C41.0873 39.854 41.5085 39.7748 41.9097 39.6164C42.2707 39.458 42.6117 39.2006 42.8524 38.9036L42.1905 38.2502C42.01 38.468 41.7893 38.6462 41.5286 38.765C41.2678 38.8838 40.987 38.9432 40.7062 38.9432C40.3452 38.9432 40.0042 38.864 39.6832 38.6858C39.3824 38.5076 39.1417 38.27 38.9812 37.973C38.8207 37.6562 38.7205 37.28 38.7205 36.9236C38.7205 36.5672 38.8007 36.2108 38.9812 35.8743C39.1617 35.5377 39.4024 35.2803 39.7033 35.1021ZM38.6803 28.4097H41.4885V30.8847H42.4914V25.1032H41.4885V27.4792H38.6803V25.1032H37.6774V30.8847H38.6803V28.4097ZM43.735 30.8847H44.7379V25.1032H43.735V30.8847ZM49.0303 25.3606C48.6492 25.1824 48.228 25.1032 47.8067 25.123H46.0015V30.8847H47.0044V29.2215H47.8067C48.228 29.2215 48.6492 29.1423 49.0303 28.9839C49.3713 28.8255 49.6521 28.5879 49.8326 28.2711C50.0131 27.9345 50.1134 27.5584 50.1134 27.1822C50.1134 26.806 50.0131 26.4298 49.8326 26.0932C49.6521 25.7566 49.3713 25.519 49.0303 25.3606ZM48.7495 28.0137C48.5288 28.2117 48.1878 28.3107 47.7466 28.3107H47.0044V26.014H47.7466C48.1878 26.014 48.5288 26.113 48.7495 26.311C48.9701 26.509 49.0904 26.7862 49.0904 27.1624C49.0904 27.5386 48.9902 27.8158 48.7495 28.0137ZM58.8988 25.123L56.191 30.8847H57.3343L57.936 29.5581H60.9447L61.5465 30.8847H62.7098L60.002 25.1032H58.8988V25.123ZM58.3171 28.7067L59.4404 26.1922L60.5636 28.7067H58.3171ZM48.1277 34.2903C47.6663 34.0329 47.1448 33.9141 46.6033 33.9141C46.0617 33.9141 45.5602 34.0527 45.0788 34.2903C44.6376 34.5477 44.2565 34.9041 44.0158 35.3595C43.755 35.8347 43.6347 36.3494 43.6347 36.884C43.6347 37.4186 43.7751 37.9334 44.0158 38.4086C44.2565 38.8442 44.6376 39.2204 45.0788 39.4778C45.5402 39.7352 46.0617 39.854 46.6033 39.854C47.1448 39.854 47.6463 39.7154 48.1277 39.4778C48.5689 39.2204 48.93 38.864 49.1907 38.4086C49.4515 37.9334 49.5718 37.4186 49.5718 36.884C49.5718 36.3494 49.4314 35.8347 49.1907 35.3595C48.93 34.9041 48.5689 34.5477 48.1277 34.2903ZM48.2881 37.9136C48.1277 38.2106 47.887 38.468 47.6062 38.6462C47.3053 38.8244 46.9643 38.9036 46.6233 38.9036C46.2823 38.9036 45.9413 38.8046 45.6405 38.6462C45.3396 38.468 45.0989 38.2304 44.9585 37.9136C44.798 37.5968 44.6977 37.2404 44.6977 36.8642C44.6977 36.488 44.778 36.1514 44.9585 35.8148C45.119 35.5179 45.3597 35.2605 45.6405 35.0823C45.9413 34.9041 46.2823 34.8249 46.6233 34.8249C46.9643 34.8249 47.3053 34.9239 47.6062 35.0823C47.907 35.2605 48.1477 35.4981 48.2881 35.8148C48.4486 36.1316 48.5489 36.488 48.5489 36.8642C48.5489 37.2404 48.4486 37.5968 48.2881 37.9136ZM82.3868 33.9933V34.9041H84.212V39.7748H85.235V34.9041H87.0603V33.9933H82.3868ZM80.7621 37.8938L77.7333 33.9933H76.8909V39.7748H77.9138V35.8743L80.9426 39.7748H81.785V33.9933H80.7621V37.8938ZM55.4488 33.9933L53.7439 37.0622L51.9989 33.9933H50.7352V39.7748H51.8183V35.7753L53.7239 39.1016L55.6695 35.7159V39.755H56.7526V33.9735H55.4488V33.9933ZM60.9849 34.2309C60.6038 34.0527 60.1625 33.9735 59.7413 33.9933H57.916V39.7748H58.9389V38.1116H59.7413C60.1625 38.1116 60.6038 38.0324 60.9849 37.874C61.3258 37.7156 61.6066 37.478 61.8072 37.1612C61.9878 36.8246 62.088 36.4484 62.088 36.0723C62.088 35.6961 61.9878 35.3199 61.8072 34.9833C61.6066 34.6467 61.3258 34.3893 60.9849 34.2309ZM60.704 36.9038C60.4834 37.1018 60.1424 37.2008 59.6811 37.2008H58.9189V34.9041H59.6811C60.1224 34.9041 60.4633 35.0031 60.704 35.2011C60.9247 35.3991 61.045 35.6763 61.045 36.0524C61.0651 36.4088 60.9447 36.7058 60.704 36.9038ZM54.2654 29.5581L54.8672 30.8847H56.0305L53.3227 25.1032H52.2195L49.5317 30.8847H50.675L51.2768 29.5581H54.2654ZM52.7811 26.1922L53.9044 28.7067H51.6579L52.7811 26.1922ZM64.0537 33.9933H63.0308V39.7748H66.922V38.864H64.0537V33.9933ZM67.7645 39.755H68.7874V33.9735H67.7645V39.755ZM26.6455 46.2691C26.6656 47.6551 26.6856 48.6649 26.7057 49.1599C26.7258 49.2193 26.7258 49.2985 26.7057 49.3579C26.7057 49.4371 26.7057 49.4965 26.7057 49.4965C26.7057 49.7737 26.7458 50.0509 26.826 50.3083C26.9063 50.0509 26.9464 49.7737 26.9464 49.4965C26.9464 49.3975 26.9865 47.9521 27.0467 45.6355C27.0266 45.6553 27.0066 45.6751 27.0066 45.6949C26.8662 45.8731 26.7458 46.0711 26.6455 46.2691ZM22.4735 17.3615C22.7944 17.0249 23.0953 16.6289 23.3159 16.2131C23.1554 16.5695 22.5336 17.9159 23.1354 18.0347C23.7973 18.1535 24.5394 17.9555 25.8833 16.2725C25.8432 14.1143 25.8031 12.2333 25.783 10.8078H25.0609C25.0208 10.8078 25.0008 10.8078 24.9607 10.8078C24.5595 10.8078 23.8976 10.7682 23.4563 10.1148C22.9749 9.40197 22.9549 8.66938 22.9348 8.13479C22.9147 7.3626 22.7142 5.95682 21.7313 5.16482C21.0493 4.63023 19.204 4.21444 17.4991 4.88763C16.9374 5.10543 15.8142 5.67962 14.711 6.21421C13.7081 6.70921 12.4244 7.323 12.0232 7.323C12.6851 7.026 13.5677 6.59041 14.5305 6.05581C15.6337 5.46182 16.797 4.82823 17.3787 4.59063C18.5421 4.13524 20.7685 3.99664 21.9118 4.90743C22.995 5.77862 23.2156 7.2834 23.2357 8.09519C23.2557 8.62978 23.2758 9.28317 23.697 9.93657C24.0781 10.491 24.6798 10.491 25.0409 10.491H25.1211H25.763C25.763 10.3128 25.763 10.1544 25.763 9.97616C25.1211 10.0158 24.1985 10.0554 23.7973 9.20398C23.3159 8.17439 23.8374 5.54102 22.2328 4.43223C20.6281 3.32345 18.0607 3.60064 15.7741 4.90743C13.5075 6.19441 10.4988 7.87739 6.78809 9.34257C3.07736 10.8078 0.770687 11.4017 0.32941 11.4611C-0.091808 11.5403 0.670396 11.8175 2.25498 11.8571C3.83956 11.8967 5.16339 11.7779 5.16339 11.7779L16.797 6.55081C16.797 6.55081 6.76803 11.4809 5.9256 12.0155C5.08316 12.5501 4.40119 12.7283 4.46136 13.2233C4.52154 13.7183 5.16339 13.6589 6.9285 13.6193C8.6936 13.5797 9.0747 13.4213 9.67644 13.2431C10.2782 13.0649 16.797 10.095 16.797 10.095C16.797 10.095 9.81685 13.5203 8.81395 14.3123C7.81105 15.1043 8.89418 15.3617 9.57615 15.3815C10.2782 15.4013 12.1436 15.3023 13.1866 14.7875C14.2296 14.2727 17.479 12.2135 17.479 12.2135C17.479 12.2135 14.2697 14.4905 13.6479 15.0053C13.1465 15.4211 12.8857 15.7775 13.0061 16.2131C13.1866 16.7675 14.1494 16.7081 15.4331 16.2527C15.4331 16.2527 16.7569 15.7973 17.2584 15.3617C17.7598 14.9063 19.1639 13.6787 19.1639 13.6787C19.1639 13.6787 17.4991 15.3815 17.0779 16.1141C16.6767 16.8467 16.5965 17.0249 16.797 17.4407C17.0779 18.0347 19.204 17.4209 19.8057 16.7873C20.247 16.2923 20.6682 15.7775 21.0493 15.2231C21.0493 15.2231 20.4075 16.2527 20.2671 16.8467C20.1267 17.4407 19.9662 17.9159 20.5479 17.9753C21.1897 18.0743 21.7915 18.0941 22.4735 17.3615ZM26.4449 30.8451C26.5051 30.8055 26.5653 30.7659 26.6255 30.7263C26.7458 30.6471 26.8461 30.5877 26.9263 30.5085C27.0868 30.4095 27.2473 30.2907 27.4077 30.1917C27.4278 29.0631 27.4679 27.9147 27.488 26.7862C27.167 26.6476 26.8261 26.509 26.465 26.3704C26.445 26.3704 26.4249 26.3506 26.4048 26.3506C26.3647 26.3308 26.3447 26.3308 26.3045 26.311C26.0638 26.2318 25.8432 26.1328 25.5825 26.0536C25.2816 25.9348 24.9807 25.8358 24.6798 25.717C22.674 26.7664 22.2729 27.2614 22.2729 28.2315C22.2729 29.5977 23.4563 30.2115 25.5022 31.4985C25.8231 31.2609 26.1441 31.0431 26.4449 30.8451ZM23.9778 28.4097C23.9778 28.4097 23.8374 27.5386 26.104 26.5288C26.1641 26.509 26.2243 26.4694 26.2845 26.4496C26.3045 27.8158 26.3246 29.1819 26.3647 30.5481C25.2415 29.7957 23.9778 29.0829 23.9778 28.4097ZM27.4077 45.2197C27.3074 45.3385 27.2072 45.4573 27.1069 45.5563C27.6885 46.3285 27.6484 47.0809 27.3275 48.0511C27.6284 47.7145 28.2301 46.8631 27.7287 45.7543C27.6284 45.5761 27.5281 45.3979 27.4077 45.2197ZM26.4851 37.1018C26.7057 37.3196 26.9665 37.577 27.2272 37.8344C27.3877 37.9928 27.5481 38.1512 27.7287 38.3294C27.7487 38.3492 27.7888 38.369 27.829 38.4086C29.1929 37.2404 30.4365 36.1316 30.4365 34.7457C30.4365 33.6567 29.3734 32.6667 28.3103 31.8747C28.2101 31.9341 28.1098 31.9935 28.0095 32.0727C27.7688 32.2311 27.5481 32.3697 27.3476 32.5083C27.3476 32.5083 27.3275 32.5083 27.3275 32.5281C27.2874 32.5677 27.2272 32.5875 27.1871 32.6271C26.9063 32.8251 26.6455 33.0033 26.4048 33.1815C26.4449 34.5081 26.465 35.8347 26.4851 37.1018ZM27.3476 32.7261C28.6714 33.6765 29.1929 34.2903 29.1929 34.9635C29.1929 35.6565 28.4508 36.4682 27.2473 37.6562C27.2673 36.0723 27.3074 34.4289 27.3476 32.7261ZM34.6687 13.6985C34.6687 13.6985 36.0728 14.9261 36.5742 15.3815C37.0757 15.8369 38.3995 16.2725 38.3995 16.2725C39.6832 16.7279 40.646 16.7873 40.8265 16.2329C40.967 15.7973 40.6861 15.4211 40.1847 15.0251C39.5629 14.5103 36.3536 12.2333 36.3536 12.2333C36.3536 12.2333 39.603 14.2925 40.646 14.8073C41.689 15.3221 43.5544 15.4211 44.2565 15.4013C44.9585 15.3815 46.0216 15.1241 45.0187 14.3321C44.0158 13.5401 37.0356 10.1148 37.0356 10.1148C37.0356 10.1148 43.5344 13.1045 44.1562 13.2629C44.7579 13.4411 45.139 13.5797 46.9041 13.6391C48.6692 13.6787 49.291 13.7381 49.3713 13.2431C49.4515 12.7679 48.7495 12.5897 47.907 12.0353C47.0646 11.5007 37.0356 6.57061 37.0356 6.57061L48.6692 11.7977C48.6692 11.7977 49.9931 11.9165 51.5776 11.8769C53.1622 11.8373 53.9244 11.5601 53.5032 11.4809C53.082 11.4017 50.7553 10.8276 47.0445 9.36237C43.3338 7.89719 40.3251 6.23401 38.0585 4.92723C35.792 3.64024 33.2045 3.34325 31.5999 4.45203C29.9952 5.56082 30.5167 8.17439 30.0353 9.22378C29.6342 10.0752 28.7115 10.0356 28.0696 9.99597C28.0696 10.1544 28.0696 10.3326 28.0496 10.5108H28.7115H28.7917C29.1528 10.5108 29.7545 10.5108 30.1356 9.95637C30.5568 9.32277 30.5769 8.64958 30.597 8.11499C30.617 7.3032 30.8377 5.79842 31.9208 4.92723C33.0641 4.01644 35.2905 4.15504 36.4539 4.61043C37.0356 4.82823 38.1989 5.46182 39.3021 6.07561C40.2649 6.61021 41.1475 7.0458 41.8094 7.3428C41.3882 7.3428 40.1245 6.72901 39.1216 6.23401C38.0385 5.67962 36.9152 5.12523 36.3335 4.90743C34.6286 4.23424 32.7833 4.65003 32.1013 5.18462C31.0984 5.97661 30.9179 7.3824 30.8978 8.15459C30.8778 8.68918 30.8577 9.44157 30.3763 10.1346C29.9551 10.788 29.2932 10.8276 28.872 10.8276C28.8319 10.8276 28.8118 10.8276 28.7717 10.8276H28.0496C28.0095 12.2531 27.9694 14.1143 27.9292 16.2329C29.2932 17.9555 30.0755 18.1733 30.7173 18.0347C31.319 17.9159 30.7173 16.5695 30.5368 16.2131C30.7775 16.6289 31.0583 17.0051 31.3792 17.3615C32.0411 18.0941 32.6629 18.0743 33.2647 17.9951C33.8664 17.9159 33.6859 17.4605 33.5455 16.8665C33.4051 16.2725 32.7632 15.2429 32.7632 15.2429C33.1443 15.7775 33.5655 16.3121 34.0068 16.8071C34.6086 17.4407 36.7347 18.0743 37.0155 17.4605C37.196 17.0645 37.1359 16.8665 36.7347 16.1339C36.3536 15.4013 34.6687 13.6985 34.6687 13.6985ZM26.9464 7.63979C27.2673 7.63979 27.5883 7.5408 27.849 7.3626C28.1098 7.1844 28.3304 6.927 28.4508 6.64981C28.5711 6.35281 28.6112 6.03601 28.551 5.71922C28.4909 5.40242 28.3304 5.12522 28.1098 4.88763C27.8891 4.66983 27.5883 4.51143 27.2673 4.45203C26.9464 4.39263 26.6255 4.41243 26.3246 4.55103C26.0237 4.66983 25.763 4.88763 25.6025 5.14503C25.422 5.40242 25.3217 5.71922 25.3217 6.03601C25.3217 6.25381 25.3618 6.45181 25.442 6.64981C25.5223 6.8478 25.6426 7.026 25.8031 7.1646C25.9636 7.323 26.124 7.4418 26.3246 7.521C26.5051 7.6002 26.7258 7.63979 26.9464 7.63979ZM32.2818 19.678C32.2818 19.678 32.2417 18.5693 30.4164 18.4505C28.551 18.3317 28.4708 19.1237 28.5109 19.4207C28.6513 19.4207 28.7717 19.4603 28.7717 19.4999C28.7717 19.5395 28.6714 19.579 28.551 19.579C28.6513 19.876 28.9321 20.2324 29.7345 20.6284C30.3964 20.9452 30.7173 20.9254 31.0984 20.866C31.0984 20.866 31.5397 21.1234 31.5397 21.5392C31.5397 21.9352 30.8377 22.7074 27.5481 24.331C27.7487 15.5795 27.9292 7.89719 27.9292 7.89719H28.1298C28.2101 7.89719 28.2903 7.85759 28.3505 7.79819C28.4106 7.73879 28.4508 7.6596 28.4508 7.5804V7.4814C28.4508 7.4418 28.4507 7.4022 28.4307 7.3626C28.4106 7.323 28.3906 7.2834 28.3505 7.2636C28.1699 7.4616 27.9694 7.62 27.7287 7.73879C27.488 7.85759 27.2272 7.89719 26.9665 7.89719C26.7057 7.89719 26.4449 7.83779 26.2043 7.73879C25.9636 7.6398 25.7429 7.4616 25.5825 7.2636C25.5423 7.3032 25.5223 7.323 25.5022 7.3626C25.4822 7.4022 25.4822 7.4418 25.4822 7.4814V7.5804C25.4822 7.6596 25.5223 7.73879 25.5825 7.79819C25.6426 7.85759 25.7229 7.89719 25.8031 7.89719H26.0037C26.0037 7.89719 26.1441 15.3617 26.2845 23.9548C26.5653 24.0934 26.8461 24.232 27.167 24.3904C27.2072 24.4102 27.2673 24.43 27.3074 24.4498C28.0496 24.8062 28.6714 25.1032 29.1929 25.3804C30.958 24.7072 32.683 23.935 33.2045 22.846C34.1272 20.8264 32.2818 19.678 32.2818 19.678ZM29.8348 19.2227C29.6342 19.2227 29.4737 19.1237 29.4737 19.0049C29.4737 18.8861 29.6342 18.7871 29.8348 18.7871C30.0353 18.7871 30.1958 18.8861 30.1958 19.0049C30.1958 19.1237 30.0353 19.2227 29.8348 19.2227ZM26.6455 44.2892C26.806 44.0912 26.9464 43.8932 27.1069 43.715C27.1269 42.5864 27.167 41.3192 27.1871 39.953C26.9865 39.755 26.7659 39.557 26.5252 39.3392C26.4449 39.2798 26.3848 39.2006 26.3045 39.1412C26.2043 39.0422 26.104 38.963 26.0037 38.8838C25.442 39.3986 24.3389 40.547 24.3389 41.537C24.3389 42.7052 25.4822 43.8932 26.3447 44.7445C26.4249 44.5663 26.5252 44.4277 26.6455 44.2892ZM26.5252 39.5768C26.5653 41.2598 26.5854 42.8042 26.6054 44.1307C25.9435 43.2596 25.2415 42.3686 25.2415 41.7548C25.2415 41.1806 25.5825 40.5272 26.5252 39.5768ZM26.9865 24.6478C23.0752 22.7866 22.2729 21.9352 22.2729 21.5194C22.2729 21.1036 22.7142 20.8462 22.7142 20.8462C23.0953 20.9254 23.4162 20.9254 24.0781 20.6086C24.8804 20.2324 25.1612 19.8562 25.2615 19.5593C25.1412 19.5593 25.0409 19.5196 25.0409 19.4801C25.0409 19.4405 25.1612 19.4009 25.3016 19.4009V19.3811C25.3217 19.0841 25.2214 18.3119 23.3761 18.4307C21.5508 18.5495 21.5107 19.6582 21.5107 19.6582C21.5107 19.6582 19.6653 20.8264 20.6281 22.8064C21.4706 24.5686 25.422 25.4992 27.7086 26.509C29.9752 27.5188 29.8348 28.3899 29.8348 28.3899C29.8348 29.1423 28.3103 29.9343 27.1069 30.7659C25.9034 31.5975 23.356 33.0429 23.356 34.7457C23.356 36.3098 24.9406 37.5176 26.4851 38.864C28.0496 40.2104 28.551 41.0222 28.551 41.7746C28.551 42.8042 26.826 44.1901 25.9435 45.9127C25.0609 47.6353 26.806 50.3083 26.2644 48.9025C25.7028 47.4967 26.0037 46.5067 26.7258 45.5167C27.6083 44.3089 29.4938 43.121 29.4938 41.5172C29.4938 40.1708 27.508 38.5868 27.508 38.5868C25.7429 36.8444 24.6197 35.8545 24.6197 34.9833C24.6197 34.1121 25.4621 33.3399 27.829 31.8153C30.1757 30.3105 31.5597 29.7165 31.5597 28.2513C31.5597 26.9644 30.8978 26.509 26.9865 24.6478ZM23.9778 18.8069C24.1784 18.8069 24.3389 18.9059 24.3389 19.0247C24.3389 19.1435 24.1784 19.2425 23.9778 19.2425C23.7772 19.2425 23.6168 19.1435 23.6168 19.0247C23.6168 18.9059 23.7772 18.8069 23.9778 18.8069ZM72.2775 33.9933L69.5697 39.7748H70.713L71.3147 38.4482H74.3234L74.9252 39.7748H76.0885L73.3807 33.9933H72.2775ZM71.6958 37.5968L72.8191 35.0823L73.9423 37.5968H71.6958Z" fill="#0D405F"/>
</g>
<defs>
<clipPath id="clip0_946_2271">
<rect width="89.2553" height="52.9515" fill="white" transform="translate(0.272461 0.226562)"/>
</clipPath>
</defs>
</svg>
