<svg width="40" height="40" viewBox="0 0 40 40" fill="none" xmlns="http://www.w3.org/2000/svg">
<path d="M30.9003 6.86673L21.7337 3.4334C20.7837 3.0834 19.2337 3.0834 18.2837 3.4334L9.11699 6.86673C7.35033 7.5334 5.91699 9.60006 5.91699 11.4834V24.9834C5.91699 26.3334 6.80033 28.1167 7.88366 28.9167L17.0503 35.7667C18.667 36.9834 21.317 36.9834 22.9337 35.7667L32.1003 28.9167C33.1837 28.1001 34.067 26.3334 34.067 24.9834V11.4834C34.0837 9.60006 32.6503 7.5334 30.9003 6.86673ZM25.8003 16.2001L18.6337 23.3667C18.3837 23.6167 18.067 23.7334 17.7503 23.7334C17.4337 23.7334 17.117 23.6167 16.867 23.3667L14.2003 20.6667C13.717 20.1834 13.717 19.3834 14.2003 18.9001C14.6837 18.4167 15.4837 18.4167 15.967 18.9001L17.767 20.7001L24.0503 14.4167C24.5337 13.9334 25.3337 13.9334 25.817 14.4167C26.3003 14.9001 26.3003 15.7167 25.8003 16.2001Z" fill="#08858F"/>
</svg>
