<svg width="40" height="40" viewBox="0 0 40 40" fill="none" xmlns="http://www.w3.org/2000/svg">
<path d="M26.983 3.3335H13.0163C6.94967 3.3335 3.33301 6.95016 3.33301 13.0168V26.9835C3.33301 33.0502 6.94967 36.6668 13.0163 36.6668H26.983C33.0497 36.6668 36.6663 33.0502 36.6663 26.9835V13.0168C36.6663 6.95016 33.0497 3.3335 26.983 3.3335ZM16.6163 24.8335L12.8663 28.5835C12.6163 28.8335 12.2997 28.9502 11.983 28.9502C11.6663 28.9502 11.333 28.8335 11.0997 28.5835L9.84967 27.3335C9.34967 26.8502 9.34967 26.0502 9.84967 25.5668C10.333 25.0835 11.1163 25.0835 11.6163 25.5668L11.983 25.9335L14.8497 23.0668C15.333 22.5835 16.1163 22.5835 16.6163 23.0668C17.0997 23.5502 17.0997 24.3502 16.6163 24.8335ZM16.6163 13.1668L12.8663 16.9168C12.6163 17.1668 12.2997 17.2835 11.983 17.2835C11.6663 17.2835 11.333 17.1668 11.0997 16.9168L9.84967 15.6668C9.34967 15.1835 9.34967 14.3835 9.84967 13.9002C10.333 13.4168 11.1163 13.4168 11.6163 13.9002L11.983 14.2668L14.8497 11.4002C15.333 10.9168 16.1163 10.9168 16.6163 11.4002C17.0997 11.8835 17.0997 12.6835 16.6163 13.1668ZM29.2663 27.7002H20.5163C19.833 27.7002 19.2663 27.1335 19.2663 26.4502C19.2663 25.7668 19.833 25.2002 20.5163 25.2002H29.2663C29.9663 25.2002 30.5163 25.7668 30.5163 26.4502C30.5163 27.1335 29.9663 27.7002 29.2663 27.7002ZM29.2663 16.0335H20.5163C19.833 16.0335 19.2663 15.4668 19.2663 14.7835C19.2663 14.1002 19.833 13.5335 20.5163 13.5335H29.2663C29.9663 13.5335 30.5163 14.1002 30.5163 14.7835C30.5163 15.4668 29.9663 16.0335 29.2663 16.0335Z" fill="#08858F"/>
</svg>
